<svg width="561" height="102" viewBox="0 0 561 102" fill="none" xmlns="http://www.w3.org/2000/svg">
<path d="M0.390625 77V4.39062H25.4688C51.25 4.39062 64.1406 16.1875 64.1406 39.7812C64.1406 51 60.5312 60.0156 53.3125 66.8281C46.0938 73.6094 36.7812 77 25.375 77H0.390625ZM15.8594 17.0469V64.3438H24.2969C31.6406 64.3438 37.4062 62.1562 41.5938 57.7812C45.7812 53.4062 47.875 47.4844 47.875 40.0156C47.875 32.7969 45.6875 27.1719 41.3125 23.1406C36.9375 19.0781 31.25 17.0469 24.25 17.0469H15.8594ZM73.5625 8.42188C73.5625 6.10938 74.375 4.23438 76 2.79688C77.6562 1.32813 79.7656 0.59375 82.3281 0.59375C84.9531 0.59375 87.0781 1.34375 88.7031 2.84375C90.3281 4.3125 91.1406 6.17188 91.1406 8.42188C91.1406 10.7031 90.3125 12.6094 88.6562 14.1406C87 15.6406 84.8906 16.3906 82.3281 16.3906C79.7969 16.3906 77.7031 15.625 76.0469 14.0938C74.3906 12.5625 73.5625 10.6719 73.5625 8.42188ZM74.6875 77V25.1562H89.7812V77H74.6875ZM153.438 71.2812C153.438 80.9062 150.688 88.3125 145.188 93.5C139.719 98.7188 131.828 101.328 121.516 101.328C114.516 101.328 108.953 100.328 104.828 98.3281V85.3906C110.203 88.5156 115.625 90.0781 121.094 90.0781C126.5 90.0781 130.719 88.625 133.75 85.7188C136.812 82.8438 138.344 78.8438 138.344 73.7188V69.4062H138.109C134.453 75.3125 129.016 78.2656 121.797 78.2656C115.266 78.2656 110.031 75.9375 106.094 71.2812C102.188 66.625 100.234 60.3906 100.234 52.5781C100.234 43.8594 102.391 36.9062 106.703 31.7188C111.047 26.5 116.734 23.8906 123.766 23.8906C130.141 23.8906 134.922 26.375 138.109 31.3438H138.344V25.1562H153.438V71.2812ZM138.484 47.75C138.484 44.3125 137.438 41.4219 135.344 39.0781C133.281 36.7031 130.672 35.5156 127.516 35.5156C123.828 35.5156 120.906 36.9688 118.75 39.875C116.625 42.75 115.562 46.7969 115.562 52.0156C115.562 56.5469 116.594 60.125 118.656 62.75C120.719 65.3438 123.453 66.6406 126.859 66.6406C130.297 66.6406 133.094 65.3125 135.25 62.6562C137.406 60 138.484 56.5469 138.484 52.2969V47.75ZM165.812 8.42188C165.812 6.10938 166.625 4.23438 168.25 2.79688C169.906 1.32813 172.016 0.59375 174.578 0.59375C177.203 0.59375 179.328 1.34375 180.953 2.84375C182.578 4.3125 183.391 6.17188 183.391 8.42188C183.391 10.7031 182.562 12.6094 180.906 14.1406C179.25 15.6406 177.141 16.3906 174.578 16.3906C172.047 16.3906 169.953 15.625 168.297 14.0938C166.641 12.5625 165.812 10.6719 165.812 8.42188ZM166.938 77V25.1562H182.031V77H166.938ZM226.094 76.3906C223.812 77.6406 220.359 78.2656 215.734 78.2656C204.734 78.2656 199.234 72.4844 199.234 60.9219V36.4531H190.703V25.1562H199.234V13.7656L214.281 9.45312V25.1562H226.094V36.4531H214.281V58.2969C214.281 63.8281 216.469 66.5938 220.844 66.5938C222.531 66.5938 224.281 66.0938 226.094 65.0938V76.3906ZM236.594 28.2969C238.938 26.9844 242.062 25.9219 245.969 25.1094C249.906 24.2969 253.266 23.8906 256.047 23.8906C270.547 23.8906 277.797 31.1562 277.797 45.6875V77H263.406V69.4531H263.219C259.688 75.3281 254.516 78.2656 247.703 78.2656C242.797 78.2656 238.859 76.875 235.891 74.0938C232.953 71.2812 231.484 67.4688 231.484 62.6562C231.484 52.7188 237.406 46.9375 249.25 45.3125L263.5 43.3906C263.5 37.3594 260.359 34.3438 254.078 34.3438C247.891 34.3438 242.062 36.2188 236.594 39.9688V28.2969ZM253.703 53.5156C248.234 54.2344 245.5 56.7031 245.5 60.9219C245.5 62.8594 246.156 64.4219 247.469 65.6094C248.812 66.7969 250.609 67.3906 252.859 67.3906C255.953 67.3906 258.5 66.2969 260.5 64.1094C262.5 61.9219 263.5 59.2031 263.5 55.9531V52.25L253.703 53.5156ZM290.594 77V0.265625H305.688V77H290.594Z" fill="#88A7D6"/>
<path d="M320.734 77V4.39062H345.812C371.594 4.39062 384.484 16.1875 384.484 39.7812C384.484 51 380.875 60.0156 373.656 66.8281C366.438 73.6094 357.125 77 345.719 77H320.734ZM336.203 17.0469V64.3438H344.641C351.984 64.3438 357.75 62.1562 361.938 57.7812C366.125 53.4062 368.219 47.4844 368.219 40.0156C368.219 32.7969 366.031 27.1719 361.656 23.1406C357.281 19.0781 351.594 17.0469 344.594 17.0469H336.203ZM392.172 51.3125C392.172 42.7812 394.719 36.0781 399.812 31.2031C404.938 26.3281 411.812 23.8906 420.438 23.8906C428.781 23.8906 435.406 26.2969 440.312 31.1094C445.219 35.8906 447.672 42.3281 447.672 50.4219C447.672 58.9219 445.156 65.6875 440.125 70.7188C435.094 75.75 428.281 78.2656 419.688 78.2656C411.25 78.2656 404.547 75.8594 399.578 71.0469C394.641 66.2031 392.172 59.625 392.172 51.3125ZM407.5 51.125C407.5 61.4688 411.719 66.6406 420.156 66.6406C428.25 66.6406 432.297 61.3281 432.297 50.7031C432.297 40.5781 428.219 35.5156 420.062 35.5156C416.094 35.5156 413 36.875 410.781 39.5938C408.594 42.3125 407.5 46.1562 407.5 51.125ZM508.469 71.2812C508.469 80.9062 505.719 88.3125 500.219 93.5C494.75 98.7188 486.859 101.328 476.547 101.328C469.547 101.328 463.984 100.328 459.859 98.3281V85.3906C465.234 88.5156 470.656 90.0781 476.125 90.0781C481.531 90.0781 485.75 88.625 488.781 85.7188C491.844 82.8438 493.375 78.8438 493.375 73.7188V69.4062H493.141C489.484 75.3125 484.047 78.2656 476.828 78.2656C470.297 78.2656 465.062 75.9375 461.125 71.2812C457.219 66.625 455.266 60.3906 455.266 52.5781C455.266 43.8594 457.422 36.9062 461.734 31.7188C466.078 26.5 471.766 23.8906 478.797 23.8906C485.172 23.8906 489.953 26.375 493.141 31.3438H493.375V25.1562H508.469V71.2812ZM493.516 47.75C493.516 44.3125 492.469 41.4219 490.375 39.0781C488.312 36.7031 485.703 35.5156 482.547 35.5156C478.859 35.5156 475.938 36.9688 473.781 39.875C471.656 42.75 470.594 46.7969 470.594 52.0156C470.594 56.5469 471.625 60.125 473.688 62.75C475.75 65.3438 478.484 66.6406 481.891 66.6406C485.328 66.6406 488.125 65.3125 490.281 62.6562C492.438 60 493.516 56.5469 493.516 52.2969V47.75ZM520.844 63.0781C526.031 66.2344 531.109 67.8125 536.078 67.8125C542.328 67.8125 545.453 66.1406 545.453 62.7969C545.453 60.4219 542.875 58.4375 537.719 56.8438C531.281 54.8438 526.859 52.625 524.453 50.1875C522.047 47.7188 520.844 44.3906 520.844 40.2031C520.844 35.1094 522.906 31.125 527.031 28.25C531.156 25.3438 536.562 23.8906 543.25 23.8906C548 23.8906 552.578 24.5938 556.984 26V37.9062C552.953 35.5312 548.516 34.3438 543.672 34.3438C541.266 34.3438 539.328 34.7812 537.859 35.6562C536.391 36.5 535.656 37.625 535.656 39.0312C535.656 41.4062 537.844 43.3281 542.219 44.7969C546.906 46.3594 550.422 47.7812 552.766 49.0625C555.141 50.3438 556.938 52.0312 558.156 54.125C559.406 56.2188 560.031 58.6406 560.031 61.3906C560.031 66.7344 557.891 70.8906 553.609 73.8594C549.328 76.7969 543.609 78.2656 536.453 78.2656C530.828 78.2656 525.625 77.375 520.844 75.5938V63.0781Z" fill="#1C5BA5"/>
</svg>
