<svg width="393" height="393" viewBox="0 0 393 393" fill="none" xmlns="http://www.w3.org/2000/svg">
<path d="M136.081 91.8995L256.786 91.8995L317.138 196.433L256.786 300.967L136.081 300.967L75.7281 196.433L136.081 91.8995Z" stroke="url(#paint0_linear)" stroke-width="40"/>
<path d="M155.543 309.226L163.921 259.923L147.285 257.989L155.543 309.226Z" fill="#2936A8"/>
<path d="M147.285 257.989L142.332 305.681L155.543 309.226L147.285 257.989Z" fill="#454CF0"/>
<path d="M131.376 319.86H149.743L142.332 305.681L131.376 319.86Z" fill="#2936A8"/>
<path d="M142.332 305.681H128.154L131.376 319.86L142.332 305.681Z" fill="#113541"/>
<path d="M121.709 316.315L131.376 319.86L128.154 305.681L121.709 316.315Z" fill="#2936A8"/>
<path d="M119.454 302.459L112.043 314.06L121.709 316.315L119.454 302.459Z" fill="#2936A8"/>
<path d="M121.709 316.315L128.154 305.681L119.454 302.459L121.709 316.315Z" fill="#113541"/>
<path d="M149.743 319.86L155.543 309.226L142.332 305.681L149.743 319.86Z" fill="#113541"/>
<path d="M134.921 255.734L131.376 300.848L119.454 302.459L128.154 305.681H142.332L134.921 255.734Z" fill="#2936A8"/>
<path d="M134.921 255.734L142.332 305.681L147.285 257.989L134.921 255.734Z" fill="#113541"/>
<path d="M151.468 217.709L134.921 255.734L147.285 257.989L151.468 217.709Z" fill="#2936A8"/>
<path d="M140.399 200.308L134.921 255.734L151.468 217.709L140.399 200.308Z" fill="#113541"/>
<path d="M151.468 217.709L153.61 197.085C153.61 197.085 144.158 199.234 140.398 200.308L151.468 217.709Z" fill="#2936A8"/>
<path d="M123.965 149.393L140.399 200.308C144.158 199.234 153.61 197.085 153.61 197.085L123.965 149.393Z" fill="#113541"/>
<path d="M131.376 130.381L123.965 149.393L153.61 197.085L131.376 130.381Z" fill="#454CF0"/>
<path d="M79.8202 83.011L86.9091 93.3228L112.043 91.0671L79.8202 83.011Z" fill="#2936A8"/>
<path d="M106.243 97.1896L112.043 91.067L86.9091 93.3227L106.243 97.1896Z" fill="#113541"/>
<path d="M106.243 52.3978L79.8202 83.011L112.043 91.0671L106.243 52.3978Z" fill="#2936A8"/>
<path d="M106.243 52.3978L75.9535 58.1982L79.8202 83.011L106.243 52.3978Z" fill="#3451E4"/>
<path d="M121.709 52.3978H106.243L112.043 91.0671L121.709 52.3978Z" fill="#9FAEFD"/>
<path d="M123.965 86.2334L121.709 52.3978L112.043 91.0671L123.965 86.2334Z" fill="#454CF0"/>
<path d="M121.709 52.3978L123.965 86.2334L153.61 64.6431L121.709 52.3978Z" fill="#2936A8"/>
<path d="M112.043 91.0671L119.454 93.3228L123.965 86.2334L112.043 91.0671Z" fill="#113541"/>
<path d="M134.921 101.057L123.965 86.2334L119.454 93.3228L134.921 101.057Z" fill="#2936A8"/>
<path d="M119.454 93.3228L131.376 130.381L134.921 101.057L119.454 93.3228Z" fill="#113541"/>
<path d="M134.921 101.057L153.61 64.6431L123.965 86.2334L134.921 101.057Z" fill="#454CF0"/>
<path d="M151.676 40.7971L131.376 34.6744L121.709 52.3978L151.676 40.7971Z" fill="#2936A8"/>
<path d="M109.787 40.7971L106.243 52.3979H121.709L109.787 40.7971Z" fill="#2936A8"/>
<path d="M131.376 34.6744L109.787 40.7971L121.709 52.3978L131.376 34.6744Z" fill="#9FAEFD"/>
<path d="M153.61 64.6432L151.676 40.7971L121.709 52.3979L153.61 64.6432Z" fill="#113541"/>
<path d="M163.921 59.8095L151.676 40.7971L153.61 64.6432L164.074 60.4089L163.921 59.8095Z" fill="#2936A8"/>
<path d="M176.81 110.402L164.074 60.4089L153.61 64.6432L176.81 110.402Z" fill="#113541"/>
<path d="M153.61 64.6431L134.921 101.057L176.81 110.402L153.61 64.6431Z" fill="#A39BFF"/>
<path d="M131.376 130.381L176.81 110.402L134.921 101.057L131.376 130.381Z" fill="#2936A8"/>
<path d="M217.088 151.649L176.81 110.402L131.376 130.381L217.088 151.649Z" fill="#A39BFF"/>
<path d="M174.232 231.243L193.243 240.266L204.199 245.1V240.266L180.677 203.53L174.232 231.243Z" fill="#113541"/>
<path d="M193.243 240.266V267.012L204.199 245.1L193.243 240.266Z" fill="#454CF0"/>
<path d="M193.243 267.012L204.199 282.48V268.623V245.1L193.243 267.012Z" fill="#2936A8"/>
<path d="M198.399 302.459L188.41 309.226V316.315L198.399 302.459Z" fill="#2936A8"/>
<path d="M188.41 316.315L200.977 318.249V311.16L198.399 302.459L188.41 316.315Z" fill="#113541"/>
<path d="M209.677 305.681L198.399 302.459L200.977 311.16L209.677 305.681Z" fill="#2936A8"/>
<path d="M200.977 318.249V321.794L209.677 305.681L200.977 311.16V318.249Z" fill="#2936A8"/>
<path d="M209.677 305.681L200.977 321.794H220.31L209.677 305.681Z" fill="#113541"/>
<path d="M209.677 305.681L220.31 321.794L225.144 305.681H209.677Z" fill="#2936A8"/>
<path d="M220.31 321.794L254.788 305.681H225.144L220.31 321.794Z" fill="#113541"/>
<path d="M220.31 321.794H286.366L254.788 305.681L220.31 321.794Z" fill="#2936A8"/>
<path d="M204.199 282.48L240.61 302.459L209.677 305.681H225.144H254.788L217.344 282.637L217.088 282.48H204.199Z" fill="#113541"/>
<path d="M286.366 321.794L284.755 311.16L254.788 305.681L286.366 321.794Z" fill="#113541"/>
<path d="M204.199 240.266L222.566 233.177L180.677 203.53L204.199 240.266Z" fill="#2936A8"/>
<path d="M222.566 233.177L204.199 240.266V245.1V268.623L222.566 233.177Z" fill="#454CF0"/>
<path d="M217.088 282.48L204.199 268.624V282.48H217.088Z" fill="#113541"/>
<path d="M204.199 268.623L217.088 282.48L217.356 282.522L222.566 233.177L204.199 268.623Z" fill="#2936A8"/>
<path d="M262.522 289.569L222.566 233.177L217.356 282.522L262.522 289.569Z" fill="#113541"/>
<path d="M254.788 305.681L262.522 289.569L217.356 282.522L217.344 282.637L254.788 305.681Z" fill="#454CF0"/>
<path d="M262.522 289.569L284.755 311.16L291.127 296.981L297.499 282.802L297.644 282.48L262.522 289.569Z" fill="#113541"/>
<path d="M254.788 305.681L284.755 311.16L262.522 289.569L254.788 305.681Z" fill="#2936A8"/>
<path d="M268.644 243.166L262.522 289.569L297.644 282.48L268.644 243.166Z" fill="#2936A8"/>
<path d="M268.644 243.166L222.566 233.177L262.522 289.569L268.644 243.166Z" fill="#454CF0"/>
<path d="M288.3 228.987L262.522 189.674L268.644 243.166L288.3 228.987Z" fill="#454CF0"/>
<path d="M297.644 282.48L288.3 228.987L268.644 243.166L297.644 282.48Z" fill="#9FAEFD"/>
<path d="M319.233 307.293L297.499 282.802L291.127 296.981L319.233 307.293Z" fill="#113541"/>
<path d="M291.127 296.981L319.233 319.86V307.293L291.127 296.981Z" fill="#2936A8"/>
<path d="M319.233 319.86L362.089 326.95L319.233 307.293V319.86Z" fill="#113541"/>
<path d="M374.656 321.794L319.233 307.293L362.089 326.95L374.656 321.794Z" fill="#2936A8"/>
<path d="M380.134 326.95L374.656 321.794L362.089 326.95H380.134Z" fill="#2936A8"/>
<path d="M163.921 259.923L174.232 231.243L180.677 203.53L147.285 257.989L163.921 259.923Z" fill="#454CF0"/>
<path d="M153.61 197.085L151.468 217.709L147.285 257.989L180.677 203.53L153.61 197.085Z" fill="#113541"/>
<path d="M180.677 203.53L217.088 151.649L153.61 197.085L180.677 203.53Z" fill="#3451E4"/>
<path d="M131.376 130.381L153.61 197.085L217.088 151.649L131.376 130.381Z" fill="#2936A8"/>
<path d="M262.522 189.674L217.088 151.649L222.566 233.177L262.522 189.674Z" fill="#3451E4"/>
<path d="M262.522 189.674L217.088 151.649L222.566 233.177L262.522 189.674Z" fill="#3451E4"/>
<path d="M262.522 189.674L217.088 151.649L222.566 233.177L262.522 189.674Z" fill="#3451E4"/>
<path d="M262.522 189.674L217.088 151.649L222.566 233.177L262.522 189.674Z" fill="#3451E4"/>
<path d="M268.819 243.315L262.569 189.443L222.389 233.195L268.819 243.315Z" fill="#9FAEFD"/>
<path d="M268.819 243.315L262.569 189.443L222.389 233.195L268.819 243.315Z" fill="#9FAEFD"/>
<path d="M268.819 243.315L262.569 189.443L222.389 233.195L268.819 243.315Z" fill="#9FAEFD"/>
<path d="M268.819 243.315L262.569 189.443L222.389 233.195L268.819 243.315Z" fill="#9FAEFD"/>
<path d="M217.088 151.649L180.677 203.53L222.566 233.177L217.088 151.649Z" fill="#9FAEFD"/>
<defs>
<linearGradient id="paint0_linear" x1="268.333" y1="71.8995" x2="124.534" y2="320.967" gradientUnits="userSpaceOnUse">
<stop stop-color="#FDE0FF"/>
<stop offset="1" stop-color="#CAC9F5"/>
</linearGradient>
</defs>
</svg>
